<?xml version="1.0" encoding="UTF-8" standalone="no"?>
<!-- Created with Inkscape (http://www.inkscape.org/) -->

<svg
   width="111.23344mm"
   height="155.47906mm"
   viewBox="0 0 111.23345 155.47906"
   version="1.1"
   id="svg5"
   xmlns:xlink="http://www.w3.org/1999/xlink"
   xmlns="http://www.w3.org/2000/svg"
   xmlns:svg="http://www.w3.org/2000/svg">
  <defs
     id="defs2">
    <linearGradient
       id="linearGradient11045">
      <stop
         style="stop-color:#8ecae6;stop-opacity:1;"
         offset="0"
         id="stop11041" />
      <stop
         style="stop-color:#022f46;stop-opacity:1;"
         offset="1"
         id="stop11043" />
    </linearGradient>
    <linearGradient
       id="linearGradient8716">
      <stop
         style="stop-color:#000000;stop-opacity:1;"
         offset="0"
         id="stop8714" />
    </linearGradient>
    <linearGradient
       xlink:href="#linearGradient11045"
       id="linearGradient11047"
       x1="43.707863"
       y1="147.54178"
       x2="151.18709"
       y2="147.54178"
       gradientUnits="userSpaceOnUse" />
  </defs>
  <g
     id="layer1"
     transform="translate(-41.916319,-45.864584)">
    <g
       id="g12113"
       transform="matrix(0.83912836,0,0,0.83912836,15.461377,40.206826)">
      <path
         id="path689"
         style="fill:#212121;fill-opacity:1;stroke-width:0.264583"
         d="m 34.508552,126.82494 a 66.278648,66.278648 0 0 0 -0.115755,2.50734 66.278648,66.278648 0 0 0 66.279163,66.27916 66.278648,66.278648 0 0 0 66.27915,-66.27916 66.278648,66.278648 0 0 0 -0.11575,-2.50734 h -6.8063 a 59.292485,59.292485 0 0 1 0.11472,2.32802 59.292485,59.292485 0 0 1 -59.29302,59.29302 59.292485,59.292485 0 0 1 -59.293026,-59.29302 59.292485,59.292485 0 0 1 0.114722,-2.32802 z"
         transform="translate(-2.8661037,-3.5826301)" />
      <path
         style="fill:url(#linearGradient11047);fill-opacity:1;stroke-width:0.264583"
         d="m 70.890699,116.3156 a 53.739445,53.739445 0 0 0 -1.917712,0.0615 53.739445,53.739445 0 0 0 -3.822506,0.32711 53.739445,53.739445 0 0 0 -3.788916,0.59944 53.739445,53.739445 0 0 0 -3.736723,0.86817 53.739445,53.739445 0 0 0 -3.664893,1.13275 53.739445,53.739445 0 0 0 -3.575492,1.39113 53.739445,53.739445 0 0 0 -3.466455,1.64227 53.739445,53.739445 0 0 0 -3.17655,1.79266 53.739445,53.739445 0 0 0 -0.03359,0.9033 53.739445,53.739445 0 0 0 27.489278,46.86691 53.739445,53.739445 0 0 0 26.250594,6.87245 53.739445,53.739445 0 0 0 7.193356,-0.5085 53.739445,53.739445 0 0 0 20.73,-7.35356 53.739445,53.739445 0 0 0 25.816,-45.8773 53.739445,53.739445 0 0 0 -0.0563,-2.37453 53.739445,53.739445 0 0 1 -27.17198,7.39025 53.739445,53.739445 0 0 1 -24.685317,-6.06372 53.739445,53.739445 0 0 1 -2.812749,-1.56631 53.739445,53.739445 0 0 0 -1.438155,-0.75913 53.739445,53.739445 0 0 0 -3.511413,-1.54409 53.739445,53.739445 0 0 0 -3.6127,-1.28984 53.739445,53.739445 0 0 0 -3.695898,-1.02888 53.739445,53.739445 0 0 0 -3.759461,-0.76274 53.739445,53.739445 0 0 0 -3.804419,-0.49248 53.739445,53.739445 0 0 0 -3.82974,-0.21962 53.739445,53.739445 0 0 0 -1.918229,-0.007 z"
         id="path4387" />
    </g>
  </g>
  <g
     id="g12143"
     transform="matrix(0.72329003,0,0,0.72329003,-14.982607,37.827685)">
    <path
       id="path11871"
       style="display:inline;fill:#212121;fill-opacity:1;stroke:#000000;stroke-width:0;stroke-dasharray:none;stroke-opacity:1"
       d="m 93.864976,49.619305 v 24.447994 c 0.525179,0.107912 1.047004,0.220071 1.56528,0.336437 0.585402,0.132004 1.166164,0.269358 1.74201,0.411996 0.483188,0.126091 0.96263,0.255926 1.43816,0.38946 0.460874,0.141074 0.92584,0.278598 1.394744,0.412526 0.46883,0.133976 0.94155,0.264341 1.418,0.391052 0.75881,0.202562 1.52695,0.395801 2.30374,0.57955 0.77692,0.183689 1.56228,0.357834 2.35541,0.522286 0.10719,0.02094 0.2145,0.04171 0.32195,0.0623 V 49.619305 h -6.26965 z" />
    <g
       id="g11880"
       transform="translate(1.7913148,-0.35826297)">
      <path
         id="path10755"
         style="fill:#212121;fill-opacity:1;stroke:#000000;stroke-width:0;stroke-dasharray:none;stroke-opacity:1"
         d="M 83.521359,18.39579 C 66.262425,1.1368578 45.606202,3.7582108 43.004337,5.7850303 39.822409,8.2637113 39.03648,30.230104 55.361762,46.555385 71.687209,62.880832 93.73528,64.026568 96.868708,61.062816 99.868628,58.225347 100.78033,35.654747 83.521356,18.39582 Z" />
      <path
         id="path10749"
         style="fill:#619500;fill-opacity:1;stroke:#000000;stroke-width:0;stroke-dasharray:none;stroke-opacity:1"
         d="M 92.402455,55.901321 46.920423,10.419289 c 0.07988,1.970053 1.139656,20.475551 13.073069,32.408963 11.933533,11.933534 30.439251,12.993209 32.408963,13.073069 z" />
      <path
         id="path10751"
         style="fill:#347100;fill-opacity:1;stroke:#000000;stroke-width:0;stroke-dasharray:none;stroke-opacity:1"
         d="M 79.519151,23.302593 C 66.903255,10.686698 46.91304,10.22214 46.91304,10.22214 c 0,0 0.0028,0.08449 0.0074,0.197149 l 45.482032,45.482032 c 0.112626,0.0046 0.196873,0.0071 0.196873,0.0071 0,0 -0.464292,-19.989952 -13.080177,-32.605836 z" />
    </g>
    <g
       id="g11888"
       transform="matrix(-1,0,0,1,198.68767,-0.35826297)">
      <path
         id="path11882"
         style="fill:#212121;fill-opacity:1;stroke:#000000;stroke-width:0;stroke-dasharray:none;stroke-opacity:1"
         d="M 83.521359,18.39579 C 66.262425,1.1368578 45.606202,3.7582108 43.004337,5.7850303 39.822409,8.2637113 39.03648,30.230104 55.361762,46.555385 71.687209,62.880832 93.73528,64.026568 96.868708,61.062816 99.868628,58.225347 100.78033,35.654747 83.521356,18.39582 Z" />
      <path
         id="path11884"
         style="fill:#619500;fill-opacity:1;stroke:#000000;stroke-width:0;stroke-dasharray:none;stroke-opacity:1"
         d="M 92.402455,55.901321 46.920423,10.419289 c 0.07988,1.970053 1.139656,20.475551 13.073069,32.408963 11.933533,11.933534 30.439251,12.993209 32.408963,13.073069 z" />
      <path
         id="path11886"
         style="fill:#347100;fill-opacity:1;stroke:#000000;stroke-width:0;stroke-dasharray:none;stroke-opacity:1"
         d="M 79.519151,23.302593 C 66.903255,10.686698 46.91304,10.22214 46.91304,10.22214 c 0,0 0.0028,0.08449 0.0074,0.197149 l 45.482032,45.482032 c 0.112626,0.0046 0.196873,0.0071 0.196873,0.0071 0,0 -0.464292,-19.989952 -13.080177,-32.605836 z" />
    </g>
    <g
       id="g11896"
       transform="matrix(0.70710678,-0.70710678,-0.70710678,-0.70710678,73.240094,59.375624)">
      <path
         id="path11890"
         style="fill:#212121;fill-opacity:1;stroke:#000000;stroke-width:0;stroke-dasharray:none;stroke-opacity:1"
         d="M 83.521359,18.39579 C 66.262425,1.1368578 45.606202,3.7582108 43.004337,5.7850303 39.822409,8.2637113 39.03648,30.230104 55.361762,46.555385 71.687209,62.880832 93.73528,64.026568 96.868708,61.062816 99.868628,58.225347 100.78033,35.654747 83.521356,18.39582 Z" />
      <path
         id="path11892"
         style="fill:#619500;fill-opacity:1;stroke:#000000;stroke-width:0;stroke-dasharray:none;stroke-opacity:1"
         d="M 92.402455,55.901321 46.920423,10.419289 c 0.07988,1.970053 1.139656,20.475551 13.073069,32.408963 11.933533,11.933534 30.439251,12.993209 32.408963,13.073069 z" />
      <path
         id="path11894"
         style="fill:#347100;fill-opacity:1;stroke:#000000;stroke-width:0;stroke-dasharray:none;stroke-opacity:1"
         d="M 79.519151,23.302593 C 66.903255,10.686698 46.91304,10.22214 46.91304,10.22214 c 0,0 0.0028,0.08449 0.0074,0.197149 l 45.482032,45.482032 c 0.112626,0.0046 0.196873,0.0071 0.196873,0.0071 0,0 -0.464292,-19.989952 -13.080177,-32.605836 z" />
    </g>
  </g>
</svg>
