<?xml version="1.0" encoding="UTF-8" standalone="no"?>
<!-- Created with Inkscape (http://www.inkscape.org/) -->

<svg
   width="111.23344mm"
   height="155.47906mm"
   viewBox="0 0 111.23344 155.47906"
   version="1.1"
   id="svg5"
   xmlns:xlink="http://www.w3.org/1999/xlink"
   xmlns="http://www.w3.org/2000/svg"
   xmlns:svg="http://www.w3.org/2000/svg">
  <defs
     id="defs2">
    <linearGradient
       id="linearGradient11045">
      <stop
         style="stop-color:#edf7fc;stop-opacity:1;"
         offset="0"
         id="stop11041" />
      <stop
         style="stop-color:#027cb9;stop-opacity:1;"
         offset="1"
         id="stop11043" />
    </linearGradient>
    <linearGradient
       id="linearGradient8716">
      <stop
         style="stop-color:#000000;stop-opacity:1;"
         offset="0"
         id="stop8714" />
    </linearGradient>
    <linearGradient
       xlink:href="#linearGradient11045"
       id="linearGradient11047"
       x1="43.707863"
       y1="147.54178"
       x2="151.18709"
       y2="147.54178"
       gradientUnits="userSpaceOnUse"
       gradientTransform="matrix(0.83912836,0,0,0.83912836,15.461377,40.206826)" />
  </defs>
  <g
     id="layer1"
     transform="translate(-41.916323,-45.864585)">
    <path
       id="path689"
       style="fill:#fdfdfd;fill-opacity:1;stroke-width:0.222019"
       d="m 42.013453,143.62294 a 55.616293,55.616293 0 0 0 -0.09713,2.10398 55.616293,55.616293 0 0 0 55.616726,55.61673 55.616293,55.616293 0 0 0 55.616711,-55.61673 55.616293,55.616293 0 0 0 -0.0971,-2.10398 h -5.71136 a 49.754006,49.754006 0 0 1 0.0963,1.95351 49.754006,49.754006 0 0 1 -49.754455,49.75446 49.754006,49.754006 0 0 1 -49.75446,-49.75446 49.754006,49.754006 0 0 1 0.09627,-1.95351 z" />
    <path
       style="fill:url(#linearGradient11047);fill-opacity:1;stroke-width:0.222019"
       d="m 74.947773,137.81054 a 45.094292,45.094292 0 0 0 -1.609207,0.0516 45.094292,45.094292 0 0 0 -3.207573,0.27449 45.094292,45.094292 0 0 0 -3.179387,0.50301 45.094292,45.094292 0 0 0 -3.13559,0.7285 45.094292,45.094292 0 0 0 -3.075315,0.95052 45.094292,45.094292 0 0 0 -3.000297,1.16734 45.094292,45.094292 0 0 0 -2.908801,1.37808 45.094292,45.094292 0 0 0 -2.665533,1.50427 45.094292,45.094292 0 0 0 -0.02819,0.75798 45.094292,45.094292 0 0 0 23.067032,39.32736 45.094292,45.094292 0 0 0 22.027618,5.76686 45.094292,45.094292 0 0 0 6.03615,-0.42669 45.094292,45.094292 0 0 0 17.39513,-6.17058 45.094292,45.094292 0 0 0 21.66294,-38.49695 45.094292,45.094292 0 0 0 -0.0472,-1.99253 45.094292,45.094292 0 0 1 -22.80078,6.20137 45.094292,45.094292 0 0 1 -20.714154,-5.08824 45.094292,45.094292 0 0 1 -2.360257,-1.31434 45.094292,45.094292 0 0 0 -1.206797,-0.63701 45.094292,45.094292 0 0 0 -2.946526,-1.29569 45.094292,45.094292 0 0 0 -3.031519,-1.08234 45.094292,45.094292 0 0 0 -3.101333,-0.86336 45.094292,45.094292 0 0 0 -3.15467,-0.64004 45.094292,45.094292 0 0 0 -3.192396,-0.41325 45.094292,45.094292 0 0 0 -3.213643,-0.18429 45.094292,45.094292 0 0 0 -1.609641,-0.006 z"
       id="path4387" />
  </g>
  <path
     id="path11871"
     style="display:inline;fill:#cccccc;fill-opacity:1;stroke:#000000;stroke-width:0;stroke-dasharray:none;stroke-opacity:1"
     d="m 52.90899,73.716833 v 17.68299 c 0.379857,0.07805 0.757288,0.159175 1.132152,0.243341 0.423415,0.09548 0.843475,0.194824 1.259978,0.297993 0.349485,0.0912 0.696261,0.185109 1.040207,0.281693 0.333346,0.102037 0.669651,0.201507 1.008804,0.298376 0.3391,0.0969 0.681014,0.191195 1.025626,0.282844 0.548839,0.146511 1.104427,0.286278 1.666272,0.419182 0.561938,0.132861 1.129981,0.258818 1.703644,0.377765 0.07753,0.01515 0.155146,0.03017 0.232864,0.04506 V 73.716833 h -4.534776 z" />
  <path
     id="path10755"
     style="fill:#cccccc;fill-opacity:1;stroke:#000000;stroke-width:0;stroke-dasharray:none;stroke-opacity:1"
     d="M 46.723195,50.874048 C 34.23998,38.390834 19.29954,40.286832 17.417637,41.752811 15.11618,43.545616 14.547726,59.433689 26.355639,71.241602 38.163673,83.049635 54.110822,83.878334 56.3772,81.734682 58.547012,79.682369 59.206437,63.357279 46.723193,50.874069 Z" />
  <path
     id="path10749"
     style="fill:#619500;fill-opacity:1;stroke:#000000;stroke-width:0;stroke-dasharray:none;stroke-opacity:1"
     d="m 53.146803,78.001424 -32.8967,-32.8967 c 0.05778,1.42492 0.824302,14.809762 9.455621,23.44108 8.631405,8.631406 22.016406,9.397858 23.441079,9.45562 z" />
  <path
     id="path10751"
     style="fill:#347100;fill-opacity:1;stroke:#000000;stroke-width:0;stroke-dasharray:none;stroke-opacity:1"
     d="m 43.828438,54.423089 c -9.124952,-9.124951 -23.583675,-9.460961 -23.583675,-9.460961 0,0 0.002,0.06111 0.0054,0.142596 l 32.896701,32.8967 c 0.08146,0.0033 0.142396,0.0051 0.142396,0.0051 0,0 -0.335818,-14.458533 -9.460762,-23.583477 z" />
  <path
     id="path11882"
     style="fill:#cccccc;fill-opacity:1;stroke:#000000;stroke-width:0;stroke-dasharray:none;stroke-opacity:1"
     d="m 68.316037,50.874048 c 12.483215,-12.483214 27.423655,-10.587216 29.305556,-9.121237 2.30146,1.792805 2.869907,17.680878 -8.938,29.488791 C 76.875559,83.049635 60.92841,83.878334 58.662032,81.734682 56.49222,79.682369 55.832795,63.357279 68.316039,50.874069 Z" />
  <path
     id="path11884"
     style="fill:#619500;fill-opacity:1;stroke:#000000;stroke-width:0;stroke-dasharray:none;stroke-opacity:1"
     d="m 61.892429,78.001424 32.8967,-32.8967 c -0.05778,1.42492 -0.824302,14.809762 -9.455621,23.44108 -8.631405,8.631406 -22.016406,9.397858 -23.441079,9.45562 z" />
  <path
     id="path11886"
     style="fill:#347100;fill-opacity:1;stroke:#000000;stroke-width:0;stroke-dasharray:none;stroke-opacity:1"
     d="m 71.210794,54.423089 c 9.124952,-9.124951 23.583675,-9.460961 23.583675,-9.460961 0,0 -0.002,0.06111 -0.0054,0.142596 l -32.896701,32.8967 c -0.08146,0.0033 -0.142396,0.0051 -0.142396,0.0051 0,0 0.335818,-14.458533 9.460762,-23.583477 z" />
  <path
     id="path11890"
     style="fill:#cccccc;fill-opacity:1;stroke:#000000;stroke-width:0;stroke-dasharray:none;stroke-opacity:1"
     d="M 71.299254,28.64864 C 71.299253,46.302571 59.394093,55.526384 57.026783,55.820487 54.131703,56.180158 42.495181,45.347552 42.495181,28.648641 42.495181,11.949561 53.18554,0.08724428 56.303902,4.646828e-4 59.289395,-0.08262032 71.299261,10.994678 71.299237,28.648626 Z" />
  <path
     id="path11892"
     style="fill:#619500;fill-opacity:1;stroke:#000000;stroke-width:0;stroke-dasharray:none;stroke-opacity:1"
     d="M 56.659479,4.9245117 V 51.447471 C 55.692762,50.399046 46.770265,40.392518 46.770266,28.185991 46.770265,15.97934 55.692927,5.9727515 56.659479,4.9245117 Z" />
  <path
     id="path11894"
     style="fill:#347100;fill-opacity:1;stroke:#000000;stroke-width:0;stroke-dasharray:none;stroke-opacity:1"
     d="m 66.7428,28.185991 c -10e-7,12.90463 -9.986267,23.366086 -9.986267,23.366086 0,0 -0.04178,-0.04464 -0.09705,-0.104615 V 4.924503 c 0.05525,-0.059954 0.09706,-0.1043206 0.09706,-0.1043206 0,0 9.986267,10.4611856 9.986267,23.3658036 z" />
</svg>
